<svg xmlns="http://www.w3.org/2000/svg" width="20.673" height="18.372" viewBox="0 0 20.673 18.372">
  <path id="edit" d="M14.449,3.082,17.687,6.32a.351.351,0,0,1,0,.5L9.848,14.654l-3.331.37a.7.7,0,0,1-.772-.772l.37-3.331,7.838-7.838a.351.351,0,0,1,.5,0Zm5.814-.822L18.512.509a1.4,1.4,0,0,0-1.981,0L15.261,1.78a.351.351,0,0,0,0,.5L18.5,5.512a.351.351,0,0,0,.5,0l1.271-1.271A1.4,1.4,0,0,0,20.264,2.261ZM13.782,12.522v3.654H2.3V4.69h8.248a.441.441,0,0,0,.305-.126l1.436-1.436a.431.431,0,0,0-.305-.736H1.723A1.723,1.723,0,0,0,0,4.116V16.75a1.723,1.723,0,0,0,1.723,1.723H14.356a1.723,1.723,0,0,0,1.723-1.723V11.086a.431.431,0,0,0-.736-.305l-1.436,1.436A.441.441,0,0,0,13.782,12.522Z" transform="translate(0 -0.1)" fill="#fff"/>
</svg>
