<svg xmlns="http://www.w3.org/2000/svg" xmlns:xlink="http://www.w3.org/1999/xlink" width="92.975" height="80.846" viewBox="0 0 92.975 80.846">
  <defs>
    <filter id="sign-out-alt-solid" x="0" y="0" width="92.975" height="80.846" filterUnits="userSpaceOnUse">
      <feOffset dx="3" dy="3" input="SourceAlpha"/>
      <feGaussianBlur stdDeviation="7" result="blur"/>
      <feFlood flood-color="#fff" flood-opacity="0.161"/>
      <feComposite operator="in" in2="blur"/>
      <feComposite in="SourceGraphic"/>
    </filter>
  </defs>
  <g transform="matrix(1, 0, 0, 1, 0, 0)" filter="url(#sign-out-alt-solid)">
    <path id="sign-out-alt-solid-2" data-name="sign-out-alt-solid" d="M50.269,85.12,33.277,102.113a2.432,2.432,0,0,1-4.147-1.719v-9.71H15.374a2.422,2.422,0,0,1-2.427-2.427v-9.71a2.422,2.422,0,0,1,2.427-2.427H29.13v-9.71a2.433,2.433,0,0,1,4.147-1.719L50.269,81.681A2.448,2.448,0,0,1,50.269,85.12ZM19.42,101.607V97.561a1.217,1.217,0,0,0-1.214-1.214H9.71a3.233,3.233,0,0,1-3.237-3.237V73.691A3.233,3.233,0,0,1,9.71,70.454h8.5A1.217,1.217,0,0,0,19.42,69.24V65.195a1.217,1.217,0,0,0-1.214-1.214H9.71A9.712,9.712,0,0,0,0,73.691v19.42a9.712,9.712,0,0,0,9.71,9.71h8.5A1.217,1.217,0,0,0,19.42,101.607Z" transform="translate(18 -45.98)" fill="#23a8f1"/>
  </g>
</svg>
