<svg xmlns="http://www.w3.org/2000/svg" xmlns:xlink="http://www.w3.org/1999/xlink" width="80.455" height="80.455" viewBox="0 0 80.455 80.455">
  <defs>
    <filter id="sync-alt-solid" x="0" y="0" width="80.455" height="80.455" filterUnits="userSpaceOnUse">
      <feOffset dx="3" dy="3" input="SourceAlpha"/>
      <feGaussianBlur stdDeviation="7" result="blur"/>
      <feFlood flood-color="#fff" flood-opacity="0.161"/>
      <feComposite operator="in" in2="blur"/>
      <feComposite in="SourceGraphic"/>
    </filter>
  </defs>
  <g transform="matrix(1, 0, 0, 1, 0, 0)" filter="url(#sync-alt-solid)">
    <path id="sync-alt-solid-2" data-name="sync-alt-solid" d="M36.122,17.713a13.028,13.028,0,0,0-21.527,6.324.933.933,0,0,1-.9.709H9.248a.93.93,0,0,1-.915-1.1A19.23,19.23,0,0,1,40.51,13.325l2.769-2.769a1.861,1.861,0,0,1,3.176,1.316V22.266a1.861,1.861,0,0,1-1.861,1.861H34.2a1.861,1.861,0,0,1-1.316-3.176ZM9.861,30.329H20.254a1.861,1.861,0,0,1,1.316,3.176l-3.237,3.237a13.028,13.028,0,0,0,21.527-6.324.933.933,0,0,1,.9-.709h4.443a.93.93,0,0,1,.915,1.1A19.23,19.23,0,0,1,13.945,41.13L11.176,43.9A1.861,1.861,0,0,1,8,42.583V32.189A1.861,1.861,0,0,1,9.861,30.329Z" transform="translate(10 10)" fill="#23a8f1"/>
  </g>
</svg>
