<svg xmlns="http://www.w3.org/2000/svg" width="15.113" height="17.272" viewBox="0 0 15.113 17.272">
  <path id="trash" d="M1.08,15.653A1.619,1.619,0,0,0,2.7,17.272h9.716a1.619,1.619,0,0,0,1.619-1.619V4.318H1.08Zm9.176-8.636a.54.54,0,1,1,1.08,0v7.557a.54.54,0,1,1-1.08,0Zm-3.239,0a.54.54,0,1,1,1.08,0v7.557a.54.54,0,1,1-1.08,0Zm-3.239,0a.54.54,0,1,1,1.08,0v7.557a.54.54,0,0,1-1.08,0Zm10.8-5.937H10.525L10.208.449A.81.81,0,0,0,9.483,0H5.627a.8.8,0,0,0-.722.449l-.317.631H.54a.54.54,0,0,0-.54.54V2.7a.54.54,0,0,0,.54.54H14.574a.54.54,0,0,0,.54-.54V1.619A.54.54,0,0,0,14.574,1.079Z" transform="translate(0 0)" fill="#fff"/>
</svg>
