<svg xmlns="http://www.w3.org/2000/svg" width="41.163" height="32.931" viewBox="0 0 41.163 32.931">
  <path id="user-plus-solid" d="M40.134,13.378H36.018V9.262a1.032,1.032,0,0,0-1.029-1.029H32.931A1.032,1.032,0,0,0,31.9,9.262v4.116H27.785a1.032,1.032,0,0,0-1.029,1.029v2.058a1.032,1.032,0,0,0,1.029,1.029H31.9v4.116a1.032,1.032,0,0,0,1.029,1.029h2.058a1.032,1.032,0,0,0,1.029-1.029V17.494h4.116a1.032,1.032,0,0,0,1.029-1.029V14.407A1.032,1.032,0,0,0,40.134,13.378ZM14.407,16.465A8.233,8.233,0,1,0,6.174,8.233,8.232,8.232,0,0,0,14.407,16.465Zm5.763,2.058H19.1a11.2,11.2,0,0,1-9.377,0H8.644A8.647,8.647,0,0,0,0,27.168v2.676a3.088,3.088,0,0,0,3.087,3.087h22.64a3.088,3.088,0,0,0,3.087-3.087V27.168A8.647,8.647,0,0,0,20.17,18.523Z" fill="#7e7d7d"/>
</svg>
