<svg xmlns="http://www.w3.org/2000/svg" width="41.176" height="32.943" viewBox="0 0 41.176 32.943">
  <path id="user-edit-solid" d="M14.412,16.471A8.235,8.235,0,1,0,6.177,8.235,8.235,8.235,0,0,0,14.412,16.471Zm5.765,2.059H19.1a11.2,11.2,0,0,1-9.381,0H8.647A8.649,8.649,0,0,0,0,27.177v2.677a3.089,3.089,0,0,0,3.088,3.088H20.775a3.09,3.09,0,0,1-.167-1.37l.438-3.918.077-.714.508-.508L26.6,21.457A8.559,8.559,0,0,0,20.177,18.53Zm2.915,9.349L22.654,31.8a1.024,1.024,0,0,0,1.132,1.132L27.7,32.5l8.872-8.872-4.613-4.613ZM40.727,17.3l-2.438-2.438a1.542,1.542,0,0,0-2.175,0l-2.432,2.432-.264.264,4.62,4.613,2.689-2.689A1.549,1.549,0,0,0,40.727,17.3Z" fill="#7e7d7d"/>
</svg>
